<svg width="1024" height="1024" version="1.1" xmlns="http://www.w3.org/2000/svg" desc="Created with imagetracer.js version 1.2.6" ><path fill="rgb(0,0,0)" stroke="rgb(0,0,0)" stroke-width="1" opacity="0" d="M 0 0 L 1024 0 L 1024 1024 L 0 1024 L 0 0 Z M 515 12 L 79 263 L 77 264 L 77 781 L 89 788 L 510 1013 L 515 1012 L 532 1002 L 942 758 L 941 757 L 941 264 L 537 25 L 517 12 L 515 12 Z " /><path fill="rgb(0,0,0)" stroke="rgb(0,0,0)" stroke-width="1" opacity="0" d="M 513.5 82 L 516.5 82 L 528.5 89 L 856 282.5 L 498.5 486 L 484 493 L 484 495 L 481 495.5 L 481 928.5 L 479.5 929 L 136 744.5 L 136 298.5 L 137.5 298 L 513.5 82 Z " /><path fill="rgb(0,0,0)" stroke="rgb(0,0,0)" stroke-width="1" opacity="0" d="M 881.5 337 L 882 723.5 L 540 926 L 540 531.5 L 541.5 530 L 881.5 337 Z " /><path fill="rgb(236,31,38)" stroke="rgb(236,31,38)" stroke-width="1" opacity="0.5607843137254902" d="M 514.5 12 L 516.5 12 L 536.5 25 L 941 263.5 L 941 756.5 L 942 757.5 L 531.5 1002 L 514.5 1012 L 509.5 1013 L 88.5 788 L 77 780.5 L 77 263.5 L 78.5 263 L 514.5 12 Z M 515 13 L 78 265 L 78 780 L 79 782 L 510 1012 L 515 1011 L 941 758 L 939 755 L 940 754 L 940 263 L 542 29 L 517 13 L 515 13 Z " /><path fill="rgb(236,31,38)" stroke="rgb(236,31,38)" stroke-width="1" opacity="0.5607843137254902" d="M 513.5 81 L 516.5 81 L 528.5 88 L 857 282.5 Q 857.8 284.8 855.5 284 L 485 494.5 L 485 496 L 482 496.5 L 482 929.5 L 479.5 930 L 135 746 L 135 298.5 L 136.5 297 L 513.5 81 Z M 514 82 L 138 298 L 136 299 L 136 745 L 480 929 L 481 929 L 481 496 L 484 495 L 484 493 L 499 486 L 856 283 L 529 89 L 517 82 L 514 82 Z " /><path fill="rgb(236,31,38)" stroke="rgb(236,31,38)" stroke-width="1" opacity="0.5607843137254902" d="M 881.5 336 L 880.5 338 L 540.5 531 L 541.5 529 L 881.5 336 Z " /><path fill="rgb(236,31,38)" stroke="rgb(236,31,38)" stroke-width="1" opacity="0.5607843137254902" d="M 881.5 724 L 880.5 726 L 540.5 927 L 540.5 926 L 881.5 724 Z " /><path fill="rgb(236,31,39)" stroke="rgb(236,31,39)" stroke-width="1" opacity="0.996078431372549" d="M 514.5 13 L 516.5 13 L 541.5 29 L 940 263 L 940 753.5 L 939 754.5 L 941 757.5 L 514.5 1011 L 509.5 1012 L 79 782 L 78 779.5 L 78 264.5 L 514.5 13 Z M 514 81 L 137 297 L 135 299 L 135 746 L 480 930 L 482 930 L 482 497 L 485 496 L 485 495 L 856 284 Q 858 285 857 283 L 529 88 L 517 81 L 514 81 Z M 882 336 L 542 529 L 540 531 L 540 927 L 556 919 L 882 725 L 882 336 Z " /></svg>